<?xml version="1.0" encoding="UTF-8"?>
<svg width="85px" height="105px" viewBox="0 0 85 105" version="1.1" xmlns="http://www.w3.org/2000/svg" xmlns:xlink="http://www.w3.org/1999/xlink">
    <!-- Generator: Sketch 57 (83077) - https://sketch.com -->
    <title>shape@2x</title>
    <desc>Created with Sketch.</desc>
    <g id="Page-1" stroke="none" stroke-width="1" fill="none" fill-rule="evenodd">
        <g id="Black-outline" transform="translate(-255.520584, 0.601000)" fill="#0B0B09">
            <path d="M339.599584,101.562 C338.786584,98.286 338.134584,95.751 337.686584,93.764 C336.415584,88.118 336.181584,82.875 333.658584,76.993 C332.199584,73.593 329.924584,70.088 327.322584,67.331 C329.559584,65.939 331.155584,64.245 331.332584,64.064 C333.766584,61.579 335.525584,58.467 336.476584,55.125 C337.489584,51.567 337.409584,47.912 337.017584,44.265 C336.377584,38.298 334.923584,32.307 335.749584,26.282 C335.983584,24.566 336.422584,22.879 337.111584,21.287 C333.460584,22.11 330.053584,23.823 327.117584,26.15 C319.419584,31.761 315.894584,39.621 315.561584,49.467 C314.291584,41.018 314.587584,38.735 312.794584,33.326 C309.741584,24.116 302.354584,16.926 293.203584,13.828 C281.121584,9.738 265.730584,9.807 256.476584,0 C254.165584,13.078 260.486584,27.884 270.513584,36.287 C277.371584,42.034 285.862584,44.863 294.378584,47.129 C300.727584,48.819 308.288584,49.592 313.117584,54.584 C314.872584,56.399 316.114584,58.661 316.433584,61.184 C311.413584,59.512 306.131584,58.785 301.015584,57.436 C295.898584,56.087 290.781584,54.003 287.127584,50.177 C286.035584,60.442 289.620584,71.238 297.078584,78.377 C303.102584,84.144 311.088584,87.011 318.911584,88.85 C323.299584,89.882 329.599584,90.836 333.453584,93.6 C336.206584,95.575 337.775584,98.792 338.119584,102.116 C338.172584,102.636 338.199584,103.157 338.254584,103.677 C339.499584,103.438 339.925584,102.876 339.599584,101.562" id="shape"></path>
        </g>
    </g>
</svg>